<svg id="Layer_1" data-name="Layer 1" xmlns="http://www.w3.org/2000/svg" viewBox="0 0 297.64 297.64"><defs><style>.cls-1,.cls-3{fill:#ffdb02;}.cls-2{fill:#353a3c;}.cls-3{font-size:48px;font-family:Impact;}</style></defs><title>DutLUG</title><path class="cls-1" d="M179,268s10-.54,19.17-1.47c2.36-.24,4.79-.53,4.8-.53,34.62-4,78.89-32.95,80.22-86.21.52-20.67-4.27-56.43-5-60.59-1.71-9.84-3.86-19.41-.33-31.29a85.91,85.91,0,0,1,13-26.3S267,60.32,248.88,69a314,314,0,0,0-47.61,28s-10.81-20.07-13-24c-6.1-11-17.22-26.21-39.28-44.19h-.19C126.73,46.77,115.6,62,109.49,73c-2.17,3.91-13,24-13,24A314.79,314.79,0,0,0,48.82,69c-18.15-8.65-42-7.33-42-7.33A86,86,0,0,1,19.82,88c3.53,11.89,1.37,21.48-.33,31.33-.73,4.17-5.52,40-5,60.67,1.33,53.33,45.66,82.33,80.33,86.33,0,0,2.43.29,4.81.53,1.18.12,10.61,1,19.19,1.47C137.61,269.33,164.3,268.8,179,268Z"/><path class="cls-2" d="M199.86,180.5a8.26,8.26,0,0,1-4.72,7c-21.95,10.85-40.25,20.31-65.43,32.64-6,2.92-10.72-.85-10.72-6.2V147.22c0-5.35,4.75-9.13,10.72-6.2,25.18,12.33,43.48,21.79,65.43,32.64A8,8,0,0,1,199.86,180.5Z"/><text class="cls-3" transform="translate(136.05 199.68)">+</text></svg>